<?xml version="1.0" encoding="UTF-8" standalone="no"?>
<svg xmlns="http://www.w3.org/2000/svg" version="1.1" xmlns:osb="http://www.openswatchbook.org/uri/2009/osb" xml:space="preserve" height="27.868" width="27.751" enable-background="new 0 0 100 100" y="0px" x="0px" xmlns:xlink="http://www.w3.org/1999/xlink" viewBox="0 0 27.7508 27.868079"><defs><filter id="d" style="color-interpolation-filters:sRGB"><feGaussianBlur stdDeviation="0.5" result="blur"/><feComposite operator="atop" result="composite1" in2="blur" in="SourceGraphic"/><feComposite operator="in" result="composite2" in2="composite1"/><feComposite operator="in" result="fbSourceGraphic" in2="composite2"/><feColorMatrix values="0 0 0 -1 0 0 0 0 -1 0 0 0 0 -1 0 0 0 0 1 0" result="fbSourceGraphicAlpha" in="fbSourceGraphic"/><feGaussianBlur in="fbSourceGraphic" stdDeviation="1.1" result="blur"/><feComposite operator="atop" result="composite1" in2="blur" in="fbSourceGraphic"/><feComposite operator="in" in2="composite1" result="composite2"/><feComposite operator="in" in2="composite2" result="composite3"/></filter><filter id="c" style="color-interpolation-filters:sRGB"><feGaussianBlur stdDeviation="0.4" result="blur"/><feComposite operator="atop" result="composite1" in2="blur" in="SourceGraphic"/><feComposite operator="in" result="composite2" in2="composite1"/><feComposite operator="in" result="composite3" in2="composite2"/></filter><linearGradient id="b" y2="-14.176" gradientUnits="userSpaceOnUse" x2="11.393" gradientTransform="matrix(.92908 0 0 .92877 1.0321 -.65741)" y1="-14.176" x1="-8.5137"><stop offset="0"/><stop stop-color="#fff" offset="1"/></linearGradient><mask id="a" maskUnits="userSpaceOnUse"><rect transform="matrix(-.83626 .76803 -.73779 -.86549 -1.2799 -1.0136)" height="18.549" filter="url(#c)" width="18.495" y="-23.098" x="-6.8778" fill="url(#b)"/></mask></defs><path opacity=".75245" d="m16.886 2.3823c-3.218-3.1936-8.4165-3.1736-11.61 0.0439-3.1934 3.2178-5.276 16.97-5.276 16.97s13.736-2.1864 16.929-5.4043c3.1933-3.2175 3.1734-8.4163-0.04385-11.609zm-9.0213 9.0897c-1.802-1.7889-1.813-4.6991-0.0241-6.5015 1.7885-1.802 4.6982-1.8126 6.5002-0.02415 1.8024 1.7889 1.8134 4.6982 0.02495 6.5002-1.7885 1.8029-4.6986 1.8139-6.5011 0.02501z" mask="url(#a)" transform="matrix(1.1975 0 0 1.1973 2.3126 2.3223)" filter="url(#d)"/></svg>
