<?xml version="1.0" encoding="utf-8"?>
<!-- Svg Vector Icons : http://www.onlinewebfonts.com/icon -->
<!DOCTYPE svg PUBLIC "-//W3C//DTD SVG 1.1//EN" "http://www.w3.org/Graphics/SVG/1.1/DTD/svg11.dtd">
<svg version="1.1" xmlns="http://www.w3.org/2000/svg" xmlns:xlink="http://www.w3.org/1999/xlink" x="0px" y="0px" viewBox="0 0 1000 1000" enable-background="new 0 0 1000 1000" xml:space="preserve">
<metadata> Svg Vector Icons : http://www.onlinewebfonts.com/icon </metadata>
<g><g transform="translate(0.000000,511.000000) scale(0.100000,-0.100000)"><path d="M4619.5,5005.9c-1291.3-136-2305.9-622.6-3170.6-1521.9C745.6,2755.4,302.9,1849.2,141.5,820.7c-55.3-362-55.3-1063,0-1425c133.8-848.6,454.3-1598,982.3-2296.7c154.5-205.2,585.7-641,809.4-816.3c701-558,1471.2-894.7,2354.3-1033c362-55.3,1063-55.3,1425,0c853.2,133.8,1630.2,468.1,2308.2,993.8c221.4,170.6,627.2,574.2,804.8,797.8c555.7,698.7,894.7,1473.5,1033,2354.3c55.3,357.4,55.3,1065.3,0,1415.8c-219,1399.7-977.7,2596.4-2144.5,3382.7c-574.2,385.1-1277.5,657.2-1987.7,767.9C5500.4,4996.7,4801.7,5024.4,4619.5,5005.9z M5428.9,2255l412.7-1037.7l1056.1-2.3c581.1,0,1053.8-9.2,1049.2-20.8c-6.9-16.1-636.4-555.7-1510.4-1289c-156.8-131.4-283.6-249-283.6-260.6c0-13.8,214.4-516.5,475-1118.3c262.9-601.9,472.7-1099.9,465.8-1106.8c-6.9-4.6-475,295.1-1042.2,671c-567.3,373.6-1040,680.2-1051.5,680.2c-13.8,0-486.5-306.7-1051.5-680.2S2913.2-2589.7,2904-2589.7c-11.5,0,196,498.1,461.2,1106.8c265.2,608.8,481.9,1116.1,481.9,1127.6S3445.8,4.4,2954.7,419.5c-493.4,415.1-897,763.3-901.6,774.8c-4.6,11.5,447.3,23.1,1046.9,25.4l1058.4,6.9l415.1,1040c228.3,574.2,419.7,1037.6,428.9,1035.3C5009.2,3297.2,5200.6,2826.9,5428.9,2255z"/></g></g>
</svg>