<?xml version="1.0" encoding="UTF-8" standalone="no"?>
<svg xmlns:rdf="http://www.w3.org/1999/02/22-rdf-syntax-ns#" xmlns="http://www.w3.org/2000/svg" enable-background="new 0 0 595.275 311.111" xml:space="preserve" height="128" width="128" version="1.1" y="0px" x="0px" xmlns:cc="http://creativecommons.org/ns#" xmlns:dc="http://purl.org/dc/elements/1.1/" viewBox="0 0 128 127.99999"><rect rx="20" ry="20" height="128" width="128" y="-.0000015" x="0" fill="#1d2d44"/><path fill="#fff" d="m65.096 4c-22.696 0-41.096 18.402-41.096 41.096 0 22.696 41.096 78.904 41.096 78.904s41.096-56.208 41.096-78.904c0-22.694-18.404-41.096-41.096-41.096zm0 64.108c-12.71 0-23.012-10.302-23.012-23.015 0-12.71 10.302-23.009 23.012-23.009 12.713 0 23.012 10.299 23.012 23.009 0.003 12.713-10.299 23.015-23.012 23.015z"/></svg>
