<?xml version="1.0" encoding="UTF-8" standalone="no"?>
<!DOCTYPE svg PUBLIC "-//W3C//DTD SVG 1.1//EN" "http://www.w3.org/Graphics/SVG/1.1/DTD/svg11.dtd">
<svg width="100%" height="100%" viewBox="0 0 1080 1080" version="1.1" xmlns="http://www.w3.org/2000/svg" xmlns:xlink="http://www.w3.org/1999/xlink" xml:space="preserve" xmlns:serif="http://www.serif.com/" style="fill-rule:evenodd;clip-rule:evenodd;stroke-linejoin:round;stroke-miterlimit:2;">
    <g transform="matrix(1.97183,0,0,1.87166,-569.662,-257.005)">
        <path d="M836.614,223.869C836.614,176.098 799.801,137.314 754.457,137.314L371.057,137.314C325.713,137.314 288.9,176.098 288.9,223.869L288.9,627.789C288.9,675.559 325.713,714.343 371.057,714.343L754.457,714.343C799.801,714.343 836.614,675.559 836.614,627.789L836.614,223.869Z" style="fill:rgb(0,130,201);"/>
    </g>
    <g transform="matrix(65.5869,0,0,65.5869,15.2992,15.3048)">
        <path d="M7.795,15.412C7.277,15.148 6.126,13.827 5.09,12.242C3.796,10.275 2.875,8.367 2.587,6.958C2.496,6.455 2.477,5.941 2.53,5.432C2.863,2.626 5.226,0.494 7.996,0.5C8.456,0.5 8.744,0.53 9.118,0.588C10.375,0.86 11.503,1.565 12.312,2.584C13.332,3.887 13.723,5.592 13.376,7.222C13.06,8.543 12.196,10.304 11.017,12.095C9.751,14.003 8.457,15.5 8.025,15.5L7.795,15.412ZM8.313,9.864C10.22,9.704 11.706,8.059 11.706,6.106C11.706,4.038 10.038,2.336 8.011,2.336C7.91,2.336 7.809,2.341 7.709,2.349C5.802,2.509 4.316,4.154 4.316,6.106C4.316,8.175 5.984,9.877 8.011,9.877C8.112,9.877 8.213,9.872 8.313,9.864Z" style="fill:white;fill-rule:nonzero;"/>
    </g>
</svg>
