<?xml version="1.0" encoding="UTF-8" standalone="no"?>
<svg
   xmlns:dc="http://purl.org/dc/elements/1.1/"
   xmlns:cc="http://creativecommons.org/ns#"
   xmlns:rdf="http://www.w3.org/1999/02/22-rdf-syntax-ns#"
   xmlns:svg="http://www.w3.org/2000/svg"
   xmlns="http://www.w3.org/2000/svg"
   xmlns:sodipodi="http://sodipodi.sourceforge.net/DTD/sodipodi-0.dtd"
   xmlns:inkscape="http://www.inkscape.org/namespaces/inkscape"
   aria-hidden="true"
   focusable="false"
   data-prefix="fas"
   data-icon="hand-paper"
   role="img"
   viewBox="0 0 448 512"
   class="svg-inline--fa fa-hand-paper fa-w-14 fa-5x"
   version="1.1"
   id="svg818"
   sodipodi:docname="hand-slash.svg"
   inkscape:version="0.92.5 (2060ec1f9f, 2020-04-08)">
  <metadata
     id="metadata824">
    <rdf:RDF>
      <cc:Work
         rdf:about="">
        <dc:format>image/svg+xml</dc:format>
        <dc:type
           rdf:resource="http://purl.org/dc/dcmitype/StillImage" />
        <dc:title />
      </cc:Work>
    </rdf:RDF>
  </metadata>
  <defs
     id="defs822" />
  <sodipodi:namedview
     pagecolor="#ffffff"
     bordercolor="#666666"
     borderopacity="1"
     objecttolerance="10"
     gridtolerance="10"
     guidetolerance="10"
     inkscape:pageopacity="0"
     inkscape:pageshadow="2"
     inkscape:window-width="1920"
     inkscape:window-height="1051"
     id="namedview820"
     showgrid="false"
     inkscape:zoom="0.4609375"
     inkscape:cx="-12.750777"
     inkscape:cy="379.5811"
     inkscape:window-x="0"
     inkscape:window-y="-37"
     inkscape:window-maximized="1"
     inkscape:current-layer="svg818" />
  <path
     d="M 231.21875 0.0078125 C 209.48775 0.4238125 192 18.169 192 40 L 192 256 L 184 256 L 184 80.789062 C 184 58.359063 165.64375 39.578812 143.21875 40.007812 C 121.48775 40.423812 104 58.169 104 80 L 104 315.99219 L 72.351562 272.47266 C 59.358562 254.60666 34.342609 250.65639 16.474609 263.65039 C -1.3903906 276.64439 -5.3406563 301.66034 7.6523438 319.52734 L 80.357422 419.49805 L 272 200.28125 L 272 40.789062 C 272 18.359063 253.64375 -0.4211875 231.21875 0.0078125 z M 319.21875 39.007812 C 297.48775 39.423812 280 57.169 280 79 L 280 191.13086 L 360 99.619141 L 360 79.789062 C 360 57.359063 341.64375 38.578812 319.21875 39.007812 z M 409.11133 128.02148 L 413.36523 131.74023 L 368 183.63281 L 368 256 L 360 256 L 360 192.7832 L 117.34375 470.35352 L 133.25391 492.23242 A 48 48 0 0 0 172.07227 512 L 369.66211 512 C 391.93611 512 411.28472 496.67614 416.38672 474.99414 L 442.89453 362.33398 A 192.011 192.011 0 0 0 447.99805 318.35938 L 447.99805 168 C 447.99904 146.28028 430.68818 128.61079 409.11133 128.02148 z "
     id="path816" />
</svg>
