<svg version="1.1" viewBox="0 0 1000 1000" width="1000" height="1000" xmlns="http://www.w3.org/2000/svg">
<g transform="translate(0 511) scale(.1 -.1)"><path d="m4619.5 5005.9c-1291.3-136-2305.9-622.6-3170.6-1521.9-703.3-728.6-1146-1634.8-1307.4-2663.3-55.3-362-55.3-1063 0-1425 133.8-848.6 454.3-1598 982.3-2296.7 154.5-205.2 585.7-641 809.4-816.3 701-558 1471.2-894.7 2354.3-1033 362-55.3 1063-55.3 1425 0 853.2 133.8 1630.2 468.1 2308.2 993.8 221.4 170.6 627.2 574.2 804.8 797.8 555.7 698.7 894.7 1473.5 1033 2354.3 55.3 357.4 55.3 1065.3 0 1415.8-219 1399.7-977.7 2596.4-2144.5 3382.7-574.2 385.1-1277.5 657.2-1987.7 767.9-225.9 34.7-924.6 62.4-1106.8 43.9z"/></g>
<path d="m714.6 790.26-218.23-128.06-219.68 125.55 54.354-247.12-187.29-170.13 251.82-24.67 103.93-230.69 101.28 231.87 251.52 27.555-189.23 167.97z" fill="black" stroke-width="0"/></svg>
