<?xml version="1.0" encoding="UTF-8" standalone="no"?>
<!-- Svg Vector Icons : http://www.onlinewebfonts.com/icon -->

<svg
   xmlns:dc="http://purl.org/dc/elements/1.1/"
   xmlns:cc="http://creativecommons.org/ns#"
   xmlns:rdf="http://www.w3.org/1999/02/22-rdf-syntax-ns#"
   xmlns:svg="http://www.w3.org/2000/svg"
   xmlns="http://www.w3.org/2000/svg"
   xmlns:sodipodi="http://sodipodi.sourceforge.net/DTD/sodipodi-0.dtd"
   xmlns:inkscape="http://www.inkscape.org/namespaces/inkscape"
   version="1.1"
   x="0px"
   y="0px"
   viewBox="0 0 1000 1000"
   enable-background="new 0 0 1000 1000"
   xml:space="preserve"
   id="svg10"
   sodipodi:docname="star-circle.svg"
   inkscape:version="0.92.4 (5da689c313, 2019-01-14)"><defs
   id="defs14" /><sodipodi:namedview
   pagecolor="#ffffff"
   bordercolor="#666666"
   borderopacity="1"
   objecttolerance="10"
   gridtolerance="10"
   guidetolerance="10"
   inkscape:pageopacity="0"
   inkscape:pageshadow="2"
   inkscape:window-width="1920"
   inkscape:window-height="1014"
   id="namedview12"
   showgrid="false"
   inkscape:zoom="0.6675088"
   inkscape:cx="38.174606"
   inkscape:cy="556.39446"
   inkscape:window-x="0"
   inkscape:window-y="0"
   inkscape:window-maximized="1"
   inkscape:current-layer="svg10" />
<metadata
   id="metadata2"> Svg Vector Icons : http://www.onlinewebfonts.com/icon <rdf:RDF><cc:Work
     rdf:about=""><dc:format>image/svg+xml</dc:format><dc:type
       rdf:resource="http://purl.org/dc/dcmitype/StillImage" /></cc:Work></rdf:RDF></metadata>
<g
   id="g8"><g
     transform="translate(0.000000,511.000000) scale(0.100000,-0.100000)"
     id="g6"><path
       d="M 4619.5,5005.9 C 3328.2,4869.9 2313.6,4383.3 1448.9,3484 745.6,2755.4 302.9,1849.2 141.5,820.7 c -55.3,-362 -55.3,-1063 0,-1425 133.8,-848.6 454.3,-1598 982.3,-2296.7 154.5,-205.2 585.7,-641 809.4,-816.3 701,-558 1471.2,-894.7 2354.3,-1033 362,-55.3 1063,-55.3 1425,0 853.2,133.8 1630.2,468.1 2308.2,993.8 221.4,170.6 627.2,574.2 804.8,797.8 555.7,698.7 894.7,1473.5 1033,2354.3 55.3,357.4 55.3,1065.3 0,1415.8 -219,1399.7 -977.7,2596.4 -2144.5,3382.7 -574.2,385.1 -1277.5,657.2 -1987.7,767.9 -225.9,34.7 -924.6,62.4 -1106.8,43.9 z"
       id="path4"
       inkscape:connector-curvature="0"
       sodipodi:nodetypes="ccccccccccccccc" /></g></g>
<path
   sodipodi:type="star"
   style="opacity:1;fill:#ffffff;fill-opacity:1;stroke:#000000;stroke-width:0;stroke-linecap:round;stroke-linejoin:round;stroke-miterlimit:4;stroke-dasharray:none;stroke-opacity:1"
   id="path833"
   sodipodi:sides="5"
   sodipodi:cx="497.37173"
   sodipodi:cy="487.64722"
   sodipodi:r1="372.51102"
   sodipodi:r2="174.56351"
   sodipodi:arg1="0.9482093"
   sodipodi:arg2="1.5765278"
   inkscape:flatsided="false"
   inkscape:rounded="0"
   inkscape:randomized="0"
   d="M 714.59734,790.26495 496.37123,662.20786 276.69157,787.75507 331.04553,540.63789 143.75829,370.50633 395.57699,345.83661 499.50677,115.14232 600.78533,347.01277 852.30471,374.56741 663.0796,542.54095 Z"
   inkscape:transform-center-x="-0.59699026"
   inkscape:transform-center-y="-31.376723"
   transform="matrix(0.90485473,0,0,0.89792529,52.628718,68.681207)" /></svg>